<?xml version="1.0" encoding="UTF-8" standalone="no"?>
<svg width="16px" height="16px" viewBox="0 0 16 16" version="1.1" xmlns="http://www.w3.org/2000/svg" xmlns:xlink="http://www.w3.org/1999/xlink">
    <!-- Generator: Sketch 3.6.1 (26313) - http://www.bohemiancoding.com/sketch -->
    <title>add-table</title>
    <desc>Created with Sketch.</desc>
    <defs></defs>
    <g id="Page-1" stroke="none" stroke-width="1" fill="none" fill-rule="evenodd">
        <rect id="CONTEXT_MENU_table_row_delete" x="-140" y="-640" width="240" height="1200"></rect>
        <path d="M13.4444444,1 L2.55555556,1 C1.69222222,1 1,1.7 1,2.55555556 L1,13.4444444 C1,14.3 1.69222222,15 2.55555556,15 L13.4444444,15 C14.3,15 15,14.3 15,13.4444444 L15,2.55555556 C15,1.7 14.3,1 13.4444444,1 L13.4444444,1 Z M11.9999999,9 L8.99999995,9 L8.99999995,12 L6.99999995,12 L6.99999995,9 L4,9 L4,7 L6.99999995,6.99999995 L6.99999995,4 L8.99999995,4 L8.99999995,7 L11.9999999,7 L11.9999999,9 Z" id="Shape" fill="#FFFFFF"></path>
    </g>
</svg>