<?xml version="1.0" encoding="UTF-8" standalone="no"?>
<svg width="16px" height="16px" viewBox="0 0 16 16" version="1.1" xmlns="http://www.w3.org/2000/svg" xmlns:xlink="http://www.w3.org/1999/xlink">
    <!-- Generator: Sketch 3.6.1 (26313) - http://www.bohemiancoding.com/sketch -->
    <title>DATASOURCE_PK_Inclined_Key_16</title>
    <desc>Created with Sketch.</desc>
    <defs></defs>
    <g id="Page-1" stroke="none" stroke-width="1" fill="none" fill-rule="evenodd">
        <rect id="CONTEXT_MENU_table_row_delete" x="-110" y="-326" width="240" height="1200"></rect>
        <path d="M14,14 L12,14 L12,13 L10.5,13 L10.5,12 L9.2,12 L7,10 C6.67,10.102 5.966,10.2 5.6,10.2 C3.6117749,10.2 2,8.5882251 2,6.6 C2,4.6117749 3.6117749,3 5.6,3 C7.5882251,3 9.2,4.6117749 9.2,6.6 C9.2,6.966 9.146,7.314 9.044,7.644 L14,12.6 L14,14 Z M4.25,6.375 C4.25,6.99632034 4.75367966,7.5 5.375,7.5 C5.99632034,7.5 6.5,6.99632034 6.5,6.375 C6.5,5.75367966 5.99632034,5.25 5.375,5.25 C4.75367966,5.25 4.25,5.75367966 4.25,6.375 Z" id="Shape-Copy-18" fill="#999999"></path>
    </g>
</svg>