<?xml version="1.0" encoding="UTF-8" standalone="no"?>
<svg width="16px" height="16px" viewBox="0 0 16 16" version="1.1" xmlns="http://www.w3.org/2000/svg" xmlns:xlink="http://www.w3.org/1999/xlink">
    <!-- Generator: Sketch 3.6.1 (26313) - http://www.bohemiancoding.com/sketch -->
    <title>LINKED_OBJECTS_Link_symbol_16</title>
    <desc>Created with Sketch.</desc>
    <defs></defs>
    <g id="Page-1" stroke="none" stroke-width="1" fill="none" fill-rule="evenodd">
        <rect id="CONTEXT_MENU_table_row_delete" x="-110" y="-405" width="240" height="1200"></rect>
        <path d="M10.2989519,7.26071094 C10.1497346,6.92545382 9.94057357,6.60989251 9.66547433,6.33479327 C9.39016101,6.05990812 9.07481379,5.85053298 8.73955667,5.70131573 L8.32423175,6.11664065 L8.03564515,6.40501316 L7.73614023,6.70451809 C7.68047812,6.7599661 7.63316534,6.82033808 7.59184693,6.88349315 C7.98940279,6.90939744 8.36148254,7.06974711 8.64578743,7.35426609 C8.93822755,7.64649213 9.09022791,8.02285357 9.11548994,8.40585166 C9.12983364,8.61865216 9.10350118,8.83188083 9.03520806,9.03633201 C8.95942197,9.26369029 8.83739352,9.47798938 8.66013113,9.66081798 C8.65456492,9.66617011 8.65135364,9.67280674 8.6462156,9.67815887 L8.30603452,10.0179118 L7.83419116,10.4897551 L7.39403238,10.930128 L6.24675081,12.0774096 C5.93632755,12.3878328 5.52399982,12.5584586 5.08469738,12.5584586 C4.64625128,12.5584586 4.23306721,12.3874047 3.92264395,12.0769814 C3.61264886,11.7669863 3.44180902,11.3542304 3.44180902,10.9153561 C3.44180902,10.4764819 3.61243477,10.0635119 3.92285803,9.75330271 L5.07185228,8.60409438 C5.00612818,8.40028545 4.95924357,8.19176665 4.93034209,7.98132108 C4.90893359,7.82439677 4.89437581,7.66661612 4.89373355,7.5084073 C4.8915927,7.21767985 4.92755898,6.9271665 4.99478168,6.64264752 L2.90317113,8.73404398 C1.69894296,9.93870033 1.69894296,11.892012 2.90317113,13.0966683 C3.50560635,13.6986753 4.29493778,14.000107 5.08426921,14.000107 C5.87402881,14.000107 6.66336024,13.6988894 7.26558137,13.0966683 L9.35398064,11.008269 L9.66504616,10.6976317 C9.84295081,10.519513 9.9915258,10.3234111 10.1167655,10.1174613 C10.3139378,9.79419294 10.447955,9.44394987 10.5149637,9.08257437 C10.5494313,8.89674858 10.5678426,8.70856786 10.5678426,8.51995897 C10.5682708,8.28981758 10.5400116,8.06010437 10.4890594,7.83445877 C10.445386,7.63857098 10.3820169,7.44653673 10.2989519,7.26071094 Z M13.0968289,2.90343874 C12.4943936,2.30121761 11.7048481,2 10.9157308,2 C10.1259712,2.00021409 9.33663976,2.30121761 8.73441863,2.90365283 L6.64623344,4.99183801 L6.33516792,5.30290353 C6.15704919,5.48102226 6.00868828,5.67712412 5.88323447,5.88285982 C5.68627626,6.20612818 5.55204496,6.55637126 5.48482226,6.91774676 C5.45035458,7.10357254 5.43194327,7.29196735 5.43194327,7.48036216 C5.43172918,7.71050355 5.45977432,7.94021676 5.51072655,8.16607645 C5.55504215,8.36175014 5.61841131,8.5537844 5.70147629,8.73982427 C5.85069355,9.07486731 6.05964052,9.39021453 6.33495384,9.66531377 C6.61026716,9.94041301 6.92540029,10.1495741 7.2608715,10.2990054 L7.67598234,9.88389456 L7.96456893,9.59552206 L8.26385977,9.29623121 C8.31952188,9.24056911 8.36704875,9.18019714 8.40836716,9.11682797 C8.01059721,9.09092369 7.63851746,8.9307881 7.35399848,8.64605504 C7.06113019,8.35340083 6.90912983,7.97618304 6.8838678,7.59232862 C6.87016636,7.38017038 6.89692699,7.16801213 6.96479194,6.96398912 C7.04014986,6.73663084 7.16217831,6.52211766 7.33986887,6.33950314 C7.345221,6.33415102 7.34864636,6.32772847 7.35399848,6.32216226 L7.69396548,5.98219526 L8.16602292,5.5103519 L8.60639579,5.06997904 L9.75346327,3.92312564 C10.0638865,3.61270238 10.4764283,3.44164845 10.9157308,3.44164845 C11.3546051,3.44164845 11.767361,3.61270238 12.0773561,3.92291156 C12.7183266,4.56366799 12.7183266,5.60626199 12.0777842,6.24680434 L10.9283618,7.39601267 C10.9943,7.60003568 11.0409705,7.8083404 11.069872,8.01900004 C11.0914946,8.17592436 11.1058383,8.33370501 11.1064805,8.49169975 C11.1086214,8.78264127 11.0728692,9.07294055 11.0050042,9.35745952 L13.0968289,7.26606307 C14.301057,6.06140672 14.301057,4.10809509 13.0968289,2.90343874 Z" id="Fill-1" fill="#FFFFFF"></path>
    </g>
</svg>