<?xml version="1.0" encoding="UTF-8" standalone="no"?>
<svg width="16px" height="16px" viewBox="0 0 16 16" version="1.1" xmlns="http://www.w3.org/2000/svg" xmlns:xlink="http://www.w3.org/1999/xlink">
    <!-- Generator: Sketch 3.6.1 (26313) - http://www.bohemiancoding.com/sketch -->
    <title>navbar_op_unionall</title>
    <desc>Created with Sketch.</desc>
    <defs></defs>
    <g id="Page-1" stroke="none" stroke-width="1" fill="none" fill-rule="evenodd">
        <rect id="CONTEXT_MENU_table_row_delete" x="-110" y="-1094" width="240" height="1200"></rect>
        <g id="Page-1-Copy-4" transform="translate(0.000000, 3.000000)" stroke="#FFFFFF" fill-opacity="0.699999988" fill="#FFFFFF">
            <path d="M6.5,5 C6.5,6.33 7.08,7.52 8,8.34 C7.21,9.07 6.15,9.5 5,9.5 C2.51,9.5 0.5,7.48 0.5,5 C0.5,2.51 2.51,0.5 5,0.5 C6.15,0.5 7.21,0.93 8,1.66 C7.08,2.47 6.5,3.67 6.5,5 L6.5,5 Z" id="Stroke-3"></path>
            <path d="M15.5,5 C15.5,7.48 13.49,9.5 11,9.5 C9.85,9.5 8.79,9.07 8,8.34 C8.92,7.52 9.5,6.33 9.5,5 C9.5,3.67 8.92,2.47 8,1.66 C8.79,0.93 9.85,0.5 11,0.5 C13.49,0.5 15.5,2.51 15.5,5 L15.5,5 Z" id="Stroke-7"></path>
            <path d="M9.5,5 C9.5,6.33 8.92,7.52 8,8.34 C7.08,7.52 6.5,6.33 6.5,5 C6.5,3.67 7.08,2.47 8,1.66 C8.92,2.47 9.5,3.67 9.5,5 L9.5,5 Z" id="Stroke-11"></path>
        </g>
        <g id="cross" transform="translate(0.000000, 9.000000)">
            <path d="M5,5 L5,7 L2,7 L2,5 L0,5 L0,2 L2,2 L2,0 L5,0 L5,2 L7,2 L7,5 L5,5 Z" id="Path-Copy" fill="#039BE5"></path>
            <path d="M6,4 L6,4 L6,3 L4,3 L4,1 L3,1 L3,3 L1,3 L1,4 L3,4 L3,6 L4,6 L4,4 L6,4 Z" id="Path" fill="#FFFFFF"></path>
        </g>
    </g>
</svg>