<?xml version="1.0" encoding="UTF-8" standalone="no"?>
<svg width="16px" height="16px" viewBox="0 0 16 16" version="1.1" xmlns="http://www.w3.org/2000/svg" xmlns:xlink="http://www.w3.org/1999/xlink">
    <!-- Generator: Sketch 3.6.1 (26313) - http://www.bohemiancoding.com/sketch -->
    <title>CANVAS_PROPERTIES_properties4</title>
    <desc>Created with Sketch.</desc>
    <defs></defs>
    <g id="Page-1" stroke="none" stroke-width="1" fill="none" fill-rule="evenodd">
        <rect id="CONTEXT_MENU_table_row_delete" x="-110" y="-461" width="240" height="1200"></rect>
        <path d="M12.295599,8.588 C12.319599,8.396 12.337599,8.204 12.337599,8 C12.337599,7.796 12.319599,7.604 12.295599,7.412 L13.561599,6.422 C13.675599,6.332 13.705599,6.17 13.633599,6.038 L12.433599,3.962 C12.361599,3.83 12.199599,3.782 12.067599,3.83 L10.573599,4.43 C10.261599,4.19 9.92559896,3.992 9.55959896,3.842 L9.33159896,2.252 C9.31359896,2.108 9.18759896,2 9.03759896,2 L6.63759896,2 C6.48759896,2 6.36159896,2.108 6.34359896,2.252 L6.11559896,3.842 C5.74959896,3.992 5.41359896,4.196 5.10159896,4.43 L3.60759896,3.83 C3.46959896,3.776 3.31359896,3.83 3.24159896,3.962 L2.04159896,6.038 C1.96359896,6.17 1.99959896,6.332 2.11359896,6.422 L3.37959896,7.412 C3.35559896,7.604 3.33759896,7.802 3.33759896,8 C3.33759896,8.198 3.35559896,8.396 3.37959896,8.588 L2.11359896,9.578 C1.99959896,9.668 1.96959896,9.83 2.04159896,9.962 L3.24159896,12.038 C3.31359896,12.17 3.47559896,12.218 3.60759896,12.17 L5.10159896,11.57 C5.41359896,11.81 5.74959896,12.008 6.11559896,12.158 L6.34359896,13.748 C6.36159896,13.892 6.48759896,14 6.63759896,14 L9.03759896,14 C9.18759896,14 9.31359896,13.892 9.33159896,13.748 L9.55959896,12.158 C9.92559896,12.008 10.261599,11.804 10.573599,11.57 L12.067599,12.17 C12.205599,12.224 12.361599,12.17 12.433599,12.038 L13.633599,9.962 C13.705599,9.83 13.675599,9.668 13.561599,9.578 L12.295599,8.588 L12.295599,8.588 Z M7.83759896,10.1 C6.67959896,10.1 5.73759896,9.158 5.73759896,8 C5.73759896,6.842 6.67959896,5.9 7.83759896,5.9 C8.99559896,5.9 9.93759896,6.842 9.93759896,8 C9.93759896,9.158 8.99559896,10.1 7.83759896,10.1 L7.83759896,10.1 Z" id="Shape-Copy-4" fill="#000000"></path>
    </g>
</svg>