<?xml version="1.0" encoding="UTF-8" standalone="no"?>
<svg width="16px" height="16px" viewBox="0 0 16 16" version="1.1" xmlns="http://www.w3.org/2000/svg" xmlns:xlink="http://www.w3.org/1999/xlink">
    <!-- Generator: Sketch 3.6.1 (26313) - http://www.bohemiancoding.com/sketch -->
    <title>tab_cte</title>
    <desc>Created with Sketch.</desc>
    <defs></defs>
    <g id="Page-1" stroke="none" stroke-width="1" fill="none" fill-rule="evenodd">
        <rect id="CONTEXT_MENU_table_row_delete" x="-110" y="-640" width="240" height="1200"></rect>
        <rect id="Rectangle-515-Copy-2" fill="#039BE5" x="1" y="1" width="14" height="14" rx="2"></rect>
        <g id="Group" transform="translate(2.000000, 6.000000)" fill="#FFFFFF">
            <path d="M0,0.5 L1,0.5 L1,4.5 L0,4.5 L0,0.5 Z M1,4 L3,4 L3,5 L1,5 L1,4 Z M1,0 L3,0 L3,1 L1,1 L1,0 Z" id="Combined-Shape"></path>
            <path d="M5,1 L6,1 L6,5 L5,5 L5,1 Z M4,0 L7,0 L7,1 L4,1 L4,0 Z" id="Combined-Shape"></path>
            <path d="M8,0 L9,0 L9,5 L8,5 L8,0 Z M9,0 L11,0 L11,1 L9,1 L9,0 Z M9,2 L11,2 L11,3 L9,3 L9,2 Z M9,4 L11,4 L11,5 L9,5 L9,4 Z" id="Combined-Shape"></path>
        </g>
    </g>
</svg>