<?xml version="1.0" encoding="UTF-8" standalone="no"?>
<svg width="16px" height="16px" viewBox="0 0 16 16" version="1.1" xmlns="http://www.w3.org/2000/svg" xmlns:xlink="http://www.w3.org/1999/xlink">
    <!-- Generator: Sketch 3.6.1 (26313) - http://www.bohemiancoding.com/sketch -->
    <title>tab_derived</title>
    <desc>Created with Sketch.</desc>
    <defs></defs>
    <g id="Page-1" stroke="none" stroke-width="1" fill="none" fill-rule="evenodd">
        <rect id="CONTEXT_MENU_table_row_delete" x="-110" y="-679" width="240" height="1200"></rect>
        <path d="M1,3.00585866 C1,1.89805351 1.89706013,1 3.00585866,1 L12.9941413,1 C14.1019465,1 15,1.89706013 15,3.00585866 L15,12.9941413 C15,14.1019465 14.1029399,15 12.9941413,15 L3.00585866,15 C1.89805351,15 1,14.1029399 1,12.9941413 L1,3.00585866 Z M6.84570313,10.1767578 C6.85026044,9.55696305 6.94026605,9.09668119 7.11572266,8.79589844 C7.29117926,8.49511568 7.62727616,8.13281462 8.12402344,7.70898438 C8.37923305,7.45833208 8.5820305,7.18147938 8.73242188,6.87841797 C8.88281325,6.57535656 8.95800781,6.22786654 8.95800781,5.8359375 C8.95800781,5.41666457 8.87255945,5.08398561 8.70166016,4.83789062 C8.53076086,4.59179564 8.28808751,4.46875 7.97363281,4.46875 C7.73209515,4.46875 7.52246183,4.57470597 7.34472656,4.78662109 C7.1669913,4.99853622 7.07584638,5.30045377 7.07128906,5.69238281 L5.18457031,5.69238281 L5.17089844,5.65136719 C5.15722649,4.75357624 5.41015365,4.07112864 5.9296875,3.60400391 C6.44922135,3.13687917 7.13052964,2.90332031 7.97363281,2.90332031 C8.8850957,2.90332031 9.60172265,3.16650127 10.1235352,3.69287109 C10.6453477,4.21924091 10.90625,4.93131062 10.90625,5.82910156 C10.90625,6.39876587 10.7604181,6.9262671 10.46875,7.41162109 C10.1770819,7.89697508 9.81250219,8.3037093 9.375,8.63183594 C9.14257696,8.8414724 8.98649128,9.05680228 8.90673828,9.27783203 C8.82698528,9.49886178 8.78710938,9.79850071 8.78710938,10.1767578 L6.84570313,10.1767578 Z M8.7734375,13 L6.85253906,13 L6.85253906,11.3115234 L8.7734375,11.3115234 L8.7734375,13 Z" id="Rectangle-515" fill="#039BE5"></path>
    </g>
</svg>