<?xml version="1.0" encoding="UTF-8" standalone="no"?>
<svg width="16px" height="16px" viewBox="0 0 16 16" version="1.1" xmlns="http://www.w3.org/2000/svg" xmlns:xlink="http://www.w3.org/1999/xlink">
    <!-- Generator: Sketch 3.6.1 (26313) - http://www.bohemiancoding.com/sketch -->
    <title>CONTEXT_MENU_check</title>
    <desc>Created with Sketch.</desc>
    <defs></defs>
    <g id="Page-1" stroke="none" stroke-width="1" fill="none" fill-rule="evenodd">
        <rect id="CONTEXT_MENU_table_row_delete" x="-110" y="-100" width="240" height="1200"></rect>
        <g id="checkboxes-checked" transform="translate(1.000000, 1.000000)">
            <path d="M2,2 L2,9 L9,9 L9,2 L2,2 Z M0,0 L11,0 L11,11 L0,11 L0,0 L0,0 Z" id="Rectangle-373-Copy-10" fill="#BBBBBB"></path>
            <path d="M5,11 L5,12 L12,12 L12,5 L11,5 L11,3 L3,3 L3,11 L5,11 Z M3,3 L14,3 L14,14 L3,14 L3,3 Z" id="Combined-Shape-Copy" fill="#BBBBBB"></path>
            <rect id="Rectangle-24" fill="#CCCCCC" x="2" y="2" width="7" height="7"></rect>
            <path d="M5,8 L8.5,4.5 L7.5,3.5 L5,6 L3.5,4.5 L2.5,5.5 L5,8 Z" id="Shape" fill="#FFFFFF"></path>
        </g>
    </g>
</svg>