<?xml version="1.0" encoding="UTF-8" standalone="no"?>
<svg width="16px" height="16px" viewBox="0 0 16 16" version="1.1" xmlns="http://www.w3.org/2000/svg" xmlns:xlink="http://www.w3.org/1999/xlink">
    <!-- Generator: Sketch 3.6.1 (26313) - http://www.bohemiancoding.com/sketch -->
    <title>CONTEXT_MENU_table_row_insert</title>
    <desc>Created with Sketch.</desc>
    <defs></defs>
    <g id="Page-1" stroke="none" stroke-width="1" fill="none" fill-rule="evenodd">
        <rect id="CONTEXT_MENU_table_row_delete" x="-110" y="-757" width="240" height="1200"></rect>
        <g id="Group-4-Copy">
            <rect id="Rectangle-36" stroke="#979797" fill="#FFFFFF" x="0" y="0" width="12" height="14"></rect>
            <rect id="Rectangle-37" fill="#DDDDDD" x="1" y="1" width="10" height="3"></rect>
            <rect id="Rectangle-38" fill="#A1A1A1" x="2" y="5" width="5" height="1"></rect>
            <rect id="Rectangle-38-Copy" fill="#A1A1A1" x="2" y="7" width="5" height="1"></rect>
            <rect id="Rectangle-38-Copy-2" fill="#A1A1A1" x="2" y="9" width="5" height="1"></rect>
            <rect id="Rectangle-38-Copy-5" fill="#A1A1A1" x="8" y="5" width="2" height="1"></rect>
            <rect id="Rectangle-38-Copy-4" fill="#A1A1A1" x="8" y="7" width="2" height="1"></rect>
            <rect id="Rectangle-38-Copy-3" fill="#A1A1A1" x="8" y="9" width="2" height="1"></rect>
            <rect id="Rectangle-38-Copy-7" fill="#A1A1A1" x="2" y="11" width="5" height="1"></rect>
            <rect id="Rectangle-38-Copy-6" fill="#A1A1A1" x="8" y="11" width="2" height="1"></rect>
            <path d="M16,12 L9,12 L9,10 L6,13 L9,16 L9,14 L16,14 L16,12 L16,12 Z" id="Rectangle-34" fill="#3A7E34"></path>
        </g>
    </g>
</svg>