<svg width="16" height="16" viewBox="0 0 16 16" xmlns="http://www.w3.org/2000/svg">
  <title>
    tab_derived
  </title>
  <rect fill="#039BE5" x="1" y="1" width="14" height="14" rx="2"/>
  <path d="M8.773 13h-1.92v-1.688h1.92V13zm-1.927-2.823c.004-.62.094-1.08.27-1.38.175-.302.51-.664 1.008-1.088.255-.252.458-.53.608-.832.15-.303.226-.65.226-1.042 0-.42-.085-.752-.256-.998-.17-.246-.414-.37-.728-.37-.242 0-.452.107-.63.32-.177.21-.268.512-.273.904H5.186l-.014-.04c-.013-.898.24-1.58.76-2.048.52-.467 1.2-.7 2.044-.7.91 0 1.628.263 2.15.79.52.525.782 1.237.782 2.135 0 .57-.146 1.096-.437 1.582-.293.485-.657.892-1.095 1.22-.232.21-.39.425-.468.646-.08.22-.12.52-.12.9h-1.94z" fill="#FFF"/>
</svg>
